<svg width="0" height="0" class="hidden">
  <symbol version="1.1" xmlns="http://www.w3.org/2000/svg" xmlns:xlink="http://www.w3.org/1999/xlink" preserveAspectRatio="xMidYMid" fill="#000000" viewBox="0 -28.5 256 256" id="discord-icon-svgrepo-com">
    <g id="SVGRepo_bgCarrier" stroke-width="0"></g>
    <g id="SVGRepo_tracerCarrier" stroke-linecap="round" stroke-linejoin="round"></g>
    <g id="SVGRepo_iconCarrier">
      <g>
        <path d="M216.856339,16.5966031 C200.285002,8.84328665 182.566144,3.2084988 164.041564,0 C161.766523,4.11318106 159.108624,9.64549908 157.276099,14.0464379 C137.583995,11.0849896 118.072967,11.0849896 98.7430163,14.0464379 C96.9108417,9.64549908 94.1925838,4.11318106 91.8971895,0 C73.3526068,3.2084988 55.6133949,8.86399117 39.0420583,16.6376612 C5.61752293,67.146514 -3.4433191,116.400813 1.08711069,164.955721 C23.2560196,181.510915 44.7403634,191.567697 65.8621325,198.148576 C71.0772151,190.971126 75.7283628,183.341335 79.7352139,175.300261 C72.104019,172.400575 64.7949724,168.822202 57.8887866,164.667963 C59.7209612,163.310589 61.5131304,161.891452 63.2445898,160.431257 C105.36741,180.133187 151.134928,180.133187 192.754523,160.431257 C194.506336,161.891452 196.298154,163.310589 198.110326,164.667963 C191.183787,168.842556 183.854737,172.420929 176.223542,175.320965 C180.230393,183.341335 184.861538,190.991831 190.096624,198.16893 C211.238746,191.588051 232.743023,181.531619 254.911949,164.955721 C260.227747,108.668201 245.831087,59.8662432 216.856339,16.5966031 Z M85.4738752,135.09489 C72.8290281,135.09489 62.4592217,123.290155 62.4592217,108.914901 C62.4592217,94.5396472 72.607595,82.7145587 85.4738752,82.7145587 C98.3405064,82.7145587 108.709962,94.5189427 108.488529,108.914901 C108.508531,123.290155 98.3405064,135.09489 85.4738752,135.09489 Z M170.525237,135.09489 C157.88039,135.09489 147.510584,123.290155 147.510584,108.914901 C147.510584,94.5396472 157.658606,82.7145587 170.525237,82.7145587 C183.391518,82.7145587 193.761324,94.5189427 193.539891,108.914901 C193.539891,123.290155 183.391518,135.09489 170.525237,135.09489 Z" fill="#ffffff" fill-rule="nonzero"></path>
      </g>
    </g>
  </symbol>
  <symbol xmlns="http://www.w3.org/2000/svg" viewBox="0 0 1024 1024" id="godot">
    <g fill="#fff">
      <path d="m417.61523 76.875c-42.39203 9.424151-84.32671 22.54494-123.64257 42.33398.89912 34.71618 3.14362 67.97967 7.69336 101.76758-15.26846 9.78214-31.31507 18.17757-45.57618 29.62891-14.49005 11.14747-29.2896 21.81231-42.41015 34.84961-26.21196-17.33728-53.95467-33.6299-82.53516-48.01172C100.33705 270.59856 71.53124 306.38342 48 346.42773c18.493057 29.02877 38.32949 58.20569 56.69922 80.95899v197.7832 25.1211 22.86132c.44956.00417.89835.02088 1.34375.0625l150.66992 14.52735c7.89231.76176 14.07749 7.11448 14.62695 15.02343l4.64649 66.50977 131.42969 9.37891 9.05468-61.38672c1.17386-7.95891 8.00029-13.85742 16.05078-13.85742h158.96094c8.04633.0 14.87302 5.89851 16.04688 13.85742l9.05468 61.38672 131.4336-9.37891 4.64258-66.50977c.55362-7.90895 6.73464-14.25751 14.62695-15.02343l150.61133-14.52735c.4454-.04162.89028-.05833 1.33984-.0625v-19.61132l.0625-.01954V427.38672c21.2165-26.70928 41.30684-56.1715 56.69922-80.95899-23.52291-40.04431-52.34486-75.82917-83.15234-108.98437-28.57217 14.38182-56.32515 30.67444-82.53711 48.01172-13.11639-13.0373-27.88953-23.70214-42.40039-34.84961-14.25695-11.45134-30.32318-19.84677-45.5625-29.62891 4.53724-33.78791 6.7803-67.0514 7.68359-101.76758-39.32002-19.78904-81.24927-32.909829-123.66211-42.33398-16.9335 28.45977-32.41939 59.27922-45.90625 89.4082-15.99275-2.67239-32.05995-3.66203-48.14844-3.85351v-.02539c-.11239.0-.21676.02539-.3125.02539-.0999.0-.20478-.02539-.30468-.02539v.02539c-16.11763.19148-32.17106 1.18112-48.16797 3.85351-13.47854-30.12898-28.95559-60.94843-45.91407-89.4082zM298.41602 436.39844c50.15113.0 90.79882 40.61746 90.79882 90.75195.0 50.16779-40.64769 90.80859-90.79882 90.80859-50.12617.0-90.78711-40.6408-90.78711-90.80859.0-50.13449 40.66094-90.75195 90.78711-90.75195zm427.17773.0c50.122.0 90.7793 40.61746 90.7793 90.75195.0 50.16779-40.6573 90.80859-90.7793 90.80859-50.15946.0-90.80664-40.6408-90.80664-90.80859.0-50.13449 40.64718-90.75195 90.80664-90.75195zm-213.59961 53.10937c16.14261.0 29.25391 11.90816 29.25391 26.56055v83.58984c0 14.66488-13.1113 26.5625-29.25391 26.5625-16.1426.0-29.22656-11.89762-29.22656-26.5625v-83.58984c0-14.65239 13.08396-26.56055 29.22656-26.56055z" stroke-width="4.16261"></path>
      <path d="m0 0-1.121-16.063c-.135-1.936-1.675-3.477-3.611-3.616l-38.555-2.751c-.094-.007-.188-.01-.281-.01-1.916.0-3.569 1.406-3.852 3.33l-2.211 14.994H-81.09l-2.211-14.994c-.297-2.018-2.101-3.469-4.133-3.32l-38.555 2.751c-1.936.139-3.476 1.68-3.611 3.616L-130.721.0l-32.547 3.138c.015-3.498.06-7.33.06-8.093.0-34.374 43.605-50.896 97.781-51.086h.066.067c54.176.19 97.766 16.712 97.766 51.086.0.777.047 4.593.063 8.093z" transform="matrix(4.162611 0 0 -4.162611 784.07144 718.723121)"></path>
      <path d="m0 0c0-7.994-6.479-14.473-14.479-14.473-7.996.0-14.479 6.479-14.479 14.473s6.483 14.479 14.479 14.479C-6.479 14.479.0 7.994.0.0" transform="matrix(4.162611 0 0 -4.162611 367.36686 532.537071)"></path>
      <path d="m0 0c0-7.994 6.477-14.473 14.471-14.473C22.473-14.473 28.95-7.994 28.95.0s-6.477 14.479-14.479 14.479C6.477 14.479.0 7.994.0.0" transform="matrix(4.162611 0 0 -4.162611 656.64056 532.537071)"></path>
    </g>
  </symbol>
  <symbol xmlns="http://www.w3.org/2000/svg" aria-label="itch.io" role="img" viewBox="0 0 512 512" id="itch-io-svgrepo-com">
    <rect width="512" height="512" rx="15%" fill="#ffffff"></rect>
    <path d="M118 95c-16 10-49 47-49 56v16c0 21 19 38 36 38 21 0 38-17 38-37 0 20 17 37 38 37 20 0 36-17 36-37 0 20 18 37 39 37s39-17 39-37c0 20 16 37 36 37 21 0 38-17 38-37 0 20 17 37 38 37 17 0 36-17 36-38v-16c0-9-33-46-49-56a3511 3511 0 00-276 0zm99 101l-7 9a43 43 0 01-68-9l-7 9c-8 8-19 13-31 13l-4-1-2 46v18c0 36-4 118 16 138 30 7 86 10 142 10s112-3 142-10c20-20 16-102 16-138v-18l-2-46-4 1c-12 0-23-5-31-13l-7-9-7 9a43 43 0 01-68-9 43 43 0 01-38 22h-1-1a43 43 0 01-38-22zm-31 40c12 0 23 0 37 15l33-2 33 2c14-15 25-15 37-15 6 0 29 0 45 46l18 63c13 46-4 47-26 47-31-1-49-24-49-47a371 371 0 01-117 0c1 23-17 46-48 47-22 0-39-1-26-47l18-63c16-46 39-46 45-46zm70 36s-33 31-39 42l22-1v19h34v-19l22 1c-6-11-39-42-39-42z"></path>
  </symbol>
  <symbol fill="#ffffff" version="1.1" xmlns="http://www.w3.org/2000/svg" xmlns:xlink="http://www.w3.org/1999/xlink" xml:space="preserve" viewBox="0 0 512 512" id="linkedin-svgrepo-com">
    <g id="7935ec95c421cee6d86eb22ecd125aef">
      <path d="M116.504,500.219V170.654H6.975v329.564H116.504
		L116.504,500.219z M61.751,125.674c38.183,0,61.968-25.328,61.968-56.953c-0.722-32.328-23.785-56.941-61.252-56.941
		C24.994,11.781,0.5,36.394,0.5,68.722c0,31.625,23.772,56.953,60.53,56.953H61.751L61.751,125.674z M177.124,500.219
		c0,0,1.437-298.643,0-329.564H286.67v47.794h-0.727c14.404-22.49,40.354-55.533,99.44-55.533
		c72.085,0,126.116,47.103,126.116,148.333v188.971H401.971V323.912c0-44.301-15.848-74.531-55.497-74.531
		c-30.254,0-48.284,20.38-56.202,40.08c-2.897,7.012-3.602,16.861-3.602,26.711v184.047H177.124L177.124,500.219z"></path>
    </g>
  </symbol>
  <symbol fill="none" xmlns="http://www.w3.org/2000/svg" viewBox="0 0 24 24" id="mail-svgrepo-com">
    <g id="SVGRepo_bgCarrier" stroke-width="0"></g>
    <g id="SVGRepo_tracerCarrier" stroke-linecap="round" stroke-linejoin="round"></g>
    <g id="SVGRepo_iconCarrier">
      <path fill-rule="evenodd" clip-rule="evenodd" d="M20 4C21.6569 4 23 5.34315 23 7V17C23 18.6569 21.6569 20 20 20H4C2.34315 20 1 18.6569 1 17V7C1 5.34315 2.34315 4 4 4H20ZM19.2529 6H4.74718L11.3804 11.2367C11.7437 11.5236 12.2563 11.5236 12.6197 11.2367L19.2529 6ZM3 7.1688V17C3 17.5523 3.44772 18 4 18H20C20.5523 18 21 17.5523 21 17V7.16882L13.8589 12.8065C12.769 13.667 11.231 13.667 10.1411 12.8065L3 7.1688Z" fill="#ffffff"></path>
    </g>
  </symbol>
  <symbol fill="#ffffff" version="1.1" xmlns="http://www.w3.org/2000/svg" viewBox="0 0 32 32" id="steam-svgrepo-com">
    <title>steam</title>
    <path d="M18.102 12.129c0-0 0-0 0-0.001 0-1.564 1.268-2.831 2.831-2.831s2.831 1.268 2.831 2.831c0 1.564-1.267 2.831-2.831 2.831-0 0-0 0-0.001 0h0c-0 0-0 0-0.001 0-1.563 0-2.83-1.267-2.83-2.83 0-0 0-0 0-0.001v0zM24.691 12.135c0-2.081-1.687-3.768-3.768-3.768s-3.768 1.687-3.768 3.768c0 2.081 1.687 3.768 3.768 3.768v0c2.080-0.003 3.765-1.688 3.768-3.767v-0zM10.427 23.76l-1.841-0.762c0.524 1.078 1.611 1.808 2.868 1.808 1.317 0 2.448-0.801 2.93-1.943l0.008-0.021c0.155-0.362 0.246-0.784 0.246-1.226 0-1.757-1.424-3.181-3.181-3.181-0.405 0-0.792 0.076-1.148 0.213l0.022-0.007 1.903 0.787c0.852 0.364 1.439 1.196 1.439 2.164 0 1.296-1.051 2.347-2.347 2.347-0.324 0-0.632-0.066-0.913-0.184l0.015 0.006zM15.974 1.004c-7.857 0.001-14.301 6.046-14.938 13.738l-0.004 0.054 8.038 3.322c0.668-0.462 1.495-0.737 2.387-0.737 0.001 0 0.002 0 0.002 0h-0c0.079 0 0.156 0.005 0.235 0.008l3.575-5.176v-0.074c0.003-3.12 2.533-5.648 5.653-5.648 3.122 0 5.653 2.531 5.653 5.653s-2.531 5.653-5.653 5.653h-0.131l-5.094 3.638c0 0.065 0.005 0.131 0.005 0.199 0 0.001 0 0.002 0 0.003 0 2.342-1.899 4.241-4.241 4.241-2.047 0-3.756-1.451-4.153-3.38l-0.005-0.027-5.755-2.383c1.841 6.345 7.601 10.905 14.425 10.905 8.281 0 14.994-6.713 14.994-14.994s-6.713-14.994-14.994-14.994c-0 0-0.001 0-0.001 0h0z"></path>
  </symbol>
</svg>